<?xml version="1.0" encoding="UTF-8"?>
<svg id="Ebene_2" data-name="Ebene 2" xmlns="http://www.w3.org/2000/svg" viewBox="0 0 190.07 41.24">
  <defs>
    <style>
      .cls-1 {
        font-family: RROpague-Regular, 'RR Opague';
        font-size: 8.44px;
      }

      .cls-2 {
        letter-spacing: .24em;
      }

      .cls-3 {
        letter-spacing: .26em;
      }

      .cls-4 {
        letter-spacing: .23em;
      }

      .cls-5 {
        letter-spacing: .23em;
      }

      .cls-6 {
        letter-spacing: .25em;
      }
    </style>
  </defs>
  <g id="Ebene_1-2" data-name="Ebene 1">
    <g>
      <text class="cls-1" transform="translate(43.2 39.52)"><tspan class="cls-3" x="0" y="0">ETERNA</tspan><tspan class="cls-5" x="47.47" y="0">L</tspan><tspan class="cls-3" x="54.34" y="0" xml:space="preserve"> R</tspan><tspan class="cls-6" x="66.18" y="0">E</tspan><tspan class="cls-3" x="73.61" y="0">SO</tspan><tspan class="cls-2" x="90.3" y="0">R</tspan><tspan class="cls-4" x="98.26" y="0">T</tspan></text>
      <g>
        <path d="M0,14.34l10.2-3.22.78,2.48-7.53,2.38.78,2.46,5.36-1.69.78,2.48-5.36,1.69,1.75,5.55-2.67.84L0,14.34Z"/>
        <path d="M14.12,10.05l2.71-.69,2.69,10.67,7.45-1.88.64,2.52-10.16,2.57-3.33-13.19Z"/>
        <path d="M28,13.6c-.74-3.85,1.56-7.53,5.66-8.33,4.16-.81,7.59,1.73,8.33,5.58s-1.58,7.54-5.68,8.33c-4.14.8-7.57-1.73-8.31-5.58ZM39.21,11.41c-.45-2.34-2.63-3.89-5.04-3.42-2.4.46-3.83,2.72-3.38,5.05.45,2.34,2.63,3.89,5.02,3.43,2.42-.47,3.85-2.72,3.4-5.06Z"/>
        <path d="M45.1,3.53l8.13-1.08c2.44-.32,4.32,1.08,4.62,3.3.3,2.24-1.13,4.08-3.61,4.41l-1.55.21,6.71,4.98-3.69.49-6.5-5-.32.04.77,5.77-2.77.37-1.79-13.48ZM53.83,7.59c.79-.11,1.28-.71,1.18-1.45s-.73-1.21-1.52-1.11l-5.27.7.34,2.56,5.27-.7Z"/>
        <path d="M61.44,1.54l2.79-.26,1.27,13.54-2.79.26-1.27-13.54Z"/>
        <path d="M69.02.83l5.97-.33c4.25-.23,7,2.66,7.2,6.4.21,3.76-2.28,6.96-6.5,7.19l-5.93.33-.75-13.58ZM75.42,11.5c2.58-.14,4.05-2.11,3.92-4.42s-1.81-4.11-4.39-3.97l-3,.16.46,8.39,3-.17Z"/>
        <path d="M89.84.02l2.56-.02,5.84,13.55-2.9.02-1.78-4.33-4.8.04-1.72,4.36-2.8.02L89.84.02ZM92.58,6.86l-1.45-3.51h-.04s-1.39,3.53-1.39,3.53l2.88-.02Z"/>
        <path d="M100.15,4.94l3.22.08-.08,3.22-3.22-.08.08-3.22Z"/>
        <path d="M107.77.33l2.8.13-.65,13.58-2.8-.13.65-13.58Z"/>
        <path d="M113.82,9.97l3.23.27c.35,1.03,1.4,1.97,3.37,2.13,2.01.17,2.87-.52,2.95-1.42.07-.82-.4-1.26-1.7-1.49l-2.99-.53c-3.24-.58-4.39-1.92-4.19-4.25.2-2.37,2.44-4.13,5.89-3.84,3.13.27,5.3,2.06,6.11,5.06l-3.23-.27c-.35-1.03-1.4-1.97-3.15-2.11-1.79-.15-2.65.54-2.72,1.31-.06.7.4,1.14,1.71,1.37l2.99.53c3.24.58,4.37,2.16,4.18,4.41-.21,2.45-2.45,4.21-6.11,3.9-3.35-.28-5.52-2.08-6.33-5.07Z"/>
        <path d="M131.36,2.2l2.77.37-1.47,10.9,7.61,1.03-.35,2.58-10.39-1.4,1.82-13.48Z"/>
        <path d="M150.2,5.08l2.52.47,3.1,14.42-2.85-.54-.9-4.59-4.72-.89-2.53,3.94-2.75-.52,8.14-12.3ZM151.56,12.32l-.74-3.72h-.04s-2.05,3.19-2.05,3.19l2.83.53Z"/>
        <path d="M163.95,12.02h-.04s-2.39,9.33-2.39,9.33l-2.71-.69,3.37-13.18,2.87.73,4.65,10.54h.04s2.25-8.77,2.25-8.77l2.69.69-3.37,13.18-2.44-.62-4.92-11.21Z"/>
        <path d="M179.66,12.15l5.67,1.89c4.04,1.35,5.52,5.05,4.34,8.6-1.19,3.57-4.68,5.63-8.68,4.29l-5.63-1.88,4.31-12.9ZM181.68,24.41c2.45.82,4.54-.47,5.27-2.67s-.17-4.48-2.62-5.3l-2.85-.95-2.66,7.97,2.84.95Z"/>
      </g>
    </g>
  </g>
</svg>